<?xml version="1.0" encoding="UTF-8"?>
<svg width="24px" height="24px" viewBox="0 0 24 24" version="1.1" xmlns="http://www.w3.org/2000/svg" xmlns:xlink="http://www.w3.org/1999/xlink">
    <!-- Generator: Sketch 49.3 (51167) - http://www.bohemiancoding.com/sketch -->
    <title>github-sign</title>
    <desc>Created with Sketch.</desc>
    <defs></defs>
    <g id="Page-5" stroke="none" stroke-width="1" fill="none" fill-rule="evenodd">
        <g id="Apple-TV" transform="translate(-1816.000000, -439.000000)" fill="#798AA1" fill-rule="nonzero">
            <g id="2" transform="translate(-3.000000, 71.000000)">
                <g id="Rightbar" transform="translate(1819.000000, 236.000000)">
                    <g id="social">
                        <g id="github-sign" transform="translate(0.000000, 132.000000)">
                            <path d="M22.655672,1.31879727 C21.7763645,0.439653759 20.7178497,0 19.4793075,0 L4.4952164,0 C3.25705695,0 2.19815945,0.439653759 1.31879727,1.31879727 C0.439653759,2.19810478 0,3.25700228 0,4.4952164 L0,19.4795262 C0,20.717795 0.439653759,21.7765831 1.31879727,22.6557267 C2.19810478,23.5350342 3.25705695,23.9746879 4.4952164,23.9746879 L7.99150797,23.9746879 C8.22024601,23.9746879 8.39207289,23.9668155 8.50649658,23.951508 C8.6208656,23.9357631 8.73523462,23.868082 8.84976765,23.7483007 C8.96435535,23.628738 9.02143052,23.4543964 9.02143052,23.225549 C9.02143052,23.1944966 9.01869704,22.8403462 9.01355809,22.1640273 C9.00825513,21.4874897 9.00568565,20.951672 9.00568565,20.5561913 L8.6466697,20.6186788 C8.41776765,20.6602278 8.12900228,20.6785421 7.78037358,20.6732938 C7.43190888,20.6680456 7.07021412,20.6317449 6.69567198,20.5640638 C6.32091116,20.496328 5.97244647,20.3403007 5.64984055,20.0959818 C5.32739863,19.8512255 5.09849658,19.5313531 4.96318907,19.1360364 L4.80705239,18.7768018 C4.70301595,18.5377312 4.53922551,18.2722551 4.31546241,17.981139 C4.09169932,17.6896401 3.86542141,17.4918998 3.63651936,17.3878633 L3.52723462,17.309795 C3.45446925,17.2578041 3.38684282,17.1950979 3.32435535,17.1223326 C3.26197722,17.0493485 3.21517995,16.9764191 3.18396355,16.9038178 C3.15274715,16.8308337 3.17866059,16.7709704 3.26197722,16.7240091 C3.34529385,16.6772665 3.49601822,16.6540866 3.71464237,16.6540866 L4.02669704,16.7008292 C4.23487927,16.7423781 4.49226424,16.8671344 4.79939863,17.0753713 C5.10631435,17.2834442 5.35861503,17.5539499 5.55635535,17.8868337 C5.79580866,18.3135854 6.08430068,18.6385421 6.42265148,18.8623052 C6.76072893,19.086287 7.10159453,19.1981412 7.44492027,19.1981412 C7.78824601,19.1981412 8.08477449,19.1721185 8.33461503,19.1202916 C8.58418223,19.0681367 8.81833257,18.9899043 9.03695672,18.8858679 C9.13060592,18.1887745 9.38558542,17.652574 9.80167654,17.2780319 C9.20861959,17.2155444 8.6753713,17.1220046 8.20176765,16.9970296 C7.72843736,16.8720547 7.23930752,16.6692847 6.73470615,16.3882278 C6.2298861,16.1072255 5.81111617,15.7588702 5.47812301,15.3423964 C5.14518451,14.9259226 4.87194533,14.3796629 4.65878815,13.703508 C4.44552164,13.0269704 4.33886105,12.246451 4.33886105,11.3620592 C4.33886105,10.1030706 4.75003189,9.03110706 5.57204556,8.14671526 C5.18695216,7.19983599 5.22330752,6.1385877 5.68122096,4.96264237 C5.98299772,4.8689385 6.43052392,4.93924374 7.02358087,5.17339408 C7.61674715,5.40770843 8.05104328,5.60807289 8.32690661,5.77432346 C8.60276993,5.9406287 8.82379954,6.08123918 8.99032346,6.19582688 C9.95825057,5.92526651 10.9571207,5.79001367 11.9872073,5.79001367 C13.0172392,5.79001367 14.0162733,5.92526651 14.9842551,6.19582688 L15.5773667,5.82123007 C15.983344,5.57138952 16.4619226,5.34248747 17.0134852,5.13446925 C17.5649932,4.92639636 17.9863326,4.86910251 18.2778314,4.96280638 C18.7459134,6.13875171 18.7877904,7.2 18.4024237,8.1468246 C19.2244374,9.03132574 19.6357175,10.1032346 19.6357175,11.3622232 C19.6357175,12.246779 19.5290569,13.0299226 19.3157904,13.7113257 C19.1026879,14.3928929 18.8270979,14.9393713 18.4886378,15.3503781 C18.1505604,15.7614396 17.7290569,16.1071708 17.2244556,16.3883371 C16.7197449,16.6691754 16.2306697,16.872328 15.7571207,16.9969203 C15.2836264,17.1218952 14.7504328,17.2158178 14.1573212,17.2783052 C14.6980592,17.7463872 14.9685649,18.4849749 14.9685649,19.4945057 L14.9685649,23.2250569 C14.9685649,23.4020228 14.994369,23.5449841 15.0464146,23.6542688 C15.0987882,23.7634989 15.1818861,23.8387244 15.2963098,23.880656 C15.4112255,23.922205 15.5122005,23.9481731 15.6008747,23.9585057 C15.689549,23.9689476 15.8167654,23.9741959 15.9832893,23.9741959 L19.4795809,23.9741959 C20.7177403,23.9741959 21.7766925,23.5345421 22.6556173,22.6552346 C23.5349248,21.7759271 23.9745786,20.7169749 23.9745786,19.4788155 L23.9745786,4.4952164 C23.9744692,3.25700228 23.5348155,2.19794077 22.655672,1.31879727 Z" id="Shape"></path>
                        </g>
                    </g>
                </g>
            </g>
        </g>
    </g>
</svg>