<?xml version="1.0" encoding="UTF-8"?>
<svg width="22px" height="18px" viewBox="0 0 22 18" version="1.1" xmlns="http://www.w3.org/2000/svg" xmlns:xlink="http://www.w3.org/1999/xlink">
    <!-- Generator: Sketch 49.3 (51167) - http://www.bohemiancoding.com/sketch -->
    <title>telegram</title>
    <desc>Created with Sketch.</desc>
    <defs></defs>
    <g id="Page-5" stroke="none" stroke-width="1" fill="none" fill-rule="evenodd">
        <g id="Apple-TV" transform="translate(-1818.000000, -396.000000)" fill="#798AA1" fill-rule="nonzero">
            <g id="2" transform="translate(-3.000000, 71.000000)">
                <g id="Rightbar" transform="translate(1819.000000, 236.000000)">
                    <g id="social">
                        <g id="telegram" transform="translate(2.000000, 89.000000)">
                            <path d="M0.388585395,8.63093461 L5.45783203,10.4088824 L7.41994127,16.3386138 C7.5454881,16.7183917 8.03968208,16.8587669 8.36770251,16.6067531 L11.1933862,14.4420673 C11.4895799,14.2152756 11.9114671,14.2039739 12.2210076,14.4151224 L17.3175342,17.8922507 C17.6684347,18.1319291 18.165562,17.95124 18.2535621,17.5527867 L21.9870403,0.676685767 C22.0831071,0.241433129 21.6279999,-0.121667907 21.1869726,0.038623042 L0.382645387,7.58049826 C-0.130761952,7.76656257 -0.126288612,8.44962529 0.388585395,8.63093461 Z M7.10372752,9.46243529 L17.0109272,3.72841594 C17.1889807,3.6256671 17.3721676,3.85190751 17.2192674,3.98518468 L9.04295673,11.1272973 C8.75556302,11.3786909 8.57017611,11.7151227 8.51766937,12.0802911 L8.23914901,14.0199081 C8.20226229,14.278882 7.81513512,14.3045864 7.73908835,14.0539509 L6.66790695,10.5170064 C6.54522012,10.1135914 6.72400702,9.6826803 7.10372752,9.46243529 Z" id="XMLID_497_"></path>
                        </g>
                    </g>
                </g>
            </g>
        </g>
    </g>
</svg>