<?xml version="1.0" encoding="UTF-8"?>
<svg width="23px" height="15px" viewBox="0 0 23 15" version="1.1" xmlns="http://www.w3.org/2000/svg" xmlns:xlink="http://www.w3.org/1999/xlink">
    <!-- Generator: Sketch 49.3 (51167) - http://www.bohemiancoding.com/sketch -->
    <title>vk-social-network-logo</title>
    <desc>Created with Sketch.</desc>
    <defs></defs>
    <g id="Page-5" stroke="none" stroke-width="1" fill="none" fill-rule="evenodd">
        <g id="Apple-TV" transform="translate(-1817.000000, -356.000000)" fill="#798AA1" fill-rule="nonzero">
            <g id="2" transform="translate(-3.000000, 71.000000)">
                <g id="Rightbar" transform="translate(1819.000000, 236.000000)">
                    <g id="social">
                        <g id="vk-social-network-logo" transform="translate(1.000000, 49.000000)">
                            <path d="M22.8780202,13.5466464 C22.8501699,13.4780381 22.8242069,13.4211282 22.8000895,13.3755332 C22.4010409,12.5540074 21.6384696,11.5456427 20.512837,10.3501514 L20.4890551,10.3227752 L20.4771432,10.3093508 L20.4651055,10.2955908 L20.4530258,10.2955908 C19.9421563,9.73890941 19.6186476,9.36460819 19.4831707,9.17297478 C19.2352857,8.80792682 19.1797528,8.43842003 19.3152297,8.06402292 C19.4109443,7.7811515 19.7704823,7.18376541 20.3930049,6.27104961 C20.7204564,5.78733947 20.9797918,5.39966179 21.171305,5.10758506 C22.5525401,3.00858323 23.1513648,1.66729324 22.9676531,1.08318773 L22.8963075,0.946690282 C22.8483663,0.864513737 22.7246335,0.78933706 22.525277,0.720776699 C22.3254591,0.65236017 22.0700662,0.641045313 21.7586372,0.686640351 L18.3098905,0.713872718 C18.254022,0.691243005 18.1742458,0.693352554 18.0703103,0.720776699 C17.9665006,0.748200844 17.9145748,0.76196086 17.9145748,0.76196086 L17.8545539,0.796241041 L17.8069063,0.837425202 C17.7669763,0.86465757 17.7230616,0.912553934 17.6751204,0.981018407 C17.6274309,1.04924316 17.5875428,1.12931015 17.5556659,1.22054817 C17.1801894,2.32475355 16.7532904,3.35138503 16.2741719,4.30039468 C15.9787652,4.86628136 15.7074759,5.35670369 15.4597167,5.77194935 C15.2122932,6.18705118 15.0047157,6.49288792 14.8371941,6.6889322 C14.6694209,6.88516826 14.5180056,7.04237765 14.3820253,7.1611357 C14.2462549,7.2799417 14.1426129,7.33013939 14.0708479,7.31177672 C13.9989152,7.29341405 13.9311767,7.27519521 13.8670454,7.25697637 C13.7553504,7.17479983 13.6655078,7.06304164 13.5977693,6.92160593 C13.5297373,6.78017022 13.4839352,6.602153 13.4599856,6.38769811 C13.4361618,6.17309938 13.4220688,5.98851379 13.4180423,5.83331807 C13.4143093,5.67831412 13.416029,5.45906479 13.424124,5.17619337 C13.4324288,4.89317812 13.4361618,4.70168855 13.4361618,4.60129316 C13.4361618,4.25446403 13.4420758,3.87805327 13.4539457,3.47196497 C13.4660254,3.06587667 13.4757982,2.74412242 13.4839771,2.50708576 C13.4921141,2.26980937 13.495889,2.01877297 13.495889,1.75412039 C13.495889,1.4894678 13.4817961,1.28191689 13.4539457,1.13127587 C13.4264309,0.98082663 13.384194,0.834788265 13.3285352,0.693208721 C13.2725409,0.55177301 13.1905837,0.442364098 13.083041,0.364694318 C12.9752887,0.287120426 12.8413218,0.225559933 12.6818952,0.179821063 C12.2587292,0.0703642059 11.7198835,0.0111529845 11.0651065,0.00194767721 C9.58027137,-0.0162711601 8.6261869,0.0933295298 8.20306279,0.330605914 C8.03541538,0.430857464 7.88370643,0.567834354 7.74806177,0.741105086 C7.60432205,0.941943795 7.58427315,1.05154449 7.68804089,1.06957155 C8.16711738,1.15160426 8.50627098,1.34784031 8.70587919,1.65808794 L8.77781197,1.82248897 C8.83376434,1.94110319 8.88963283,2.15109926 8.94554326,2.45218952 C9.00136981,2.75327978 9.03739911,3.08634889 9.05325368,3.45120508 C9.09309982,4.11748714 9.09309982,4.68783264 9.05325368,5.16228952 C9.01328171,5.63693818 8.97553273,6.00644497 8.93950342,6.27109755 C8.90347412,6.53575013 8.84961891,6.75020503 8.77781197,6.91441429 C8.70587919,7.07867149 8.65802187,7.17906687 8.6340303,7.21550454 C8.61008067,7.25194222 8.59011565,7.27490754 8.57426108,7.28392107 C8.47049334,7.32937228 8.3625732,7.35252938 8.25087817,7.35252938 C8.13901536,7.35252938 8.0033707,7.28857167 7.84373446,7.16075214 C7.68414017,7.03293262 7.51850604,6.85736056 7.34683207,6.6337483 C7.1751581,6.4100881 6.98154778,6.09753915 6.76591723,5.69605351 C6.55045445,5.29456787 6.32689661,4.82006304 6.09536954,4.27253904 L5.90381444,3.87546427 C5.78406629,3.620017 5.62048739,3.24806505 5.41290995,2.75994404 C5.20520668,2.27163126 5.02162081,1.79928393 4.86202652,1.34299794 C4.79823074,1.15136454 4.70239028,1.00547 4.5746729,0.905074622 L4.51473591,0.863890461 C4.47488977,0.827452786 4.41092622,0.788761729 4.32318082,0.747529623 C4.23530958,0.706345462 4.14362151,0.676811768 4.0477391,0.658640875 L0.766555928,0.685873242 C0.43126111,0.685873242 0.203760598,0.772700385 0.083970506,0.94611495 L0.036029303,1.02814766 C0.0120796732,1.07383859 0,1.14680983 0,1.24725315 C0,1.34764854 0.0239496298,1.47086541 0.0718908328,1.61675994 C0.550883429,2.90358519 1.07177739,4.14462362 1.63457272,5.34006702 C2.19736805,6.53551041 2.68642704,7.49847186 3.10145609,8.22808835 C3.51656903,8.95823223 3.93969314,9.64733578 4.37082842,10.2950634 C4.8019637,10.9430307 5.08734598,11.3582764 5.22697525,11.5407045 C5.3667723,11.7234682 5.47657989,11.8601095 5.55639801,11.9513475 L5.8558313,12.2798139 C6.04742833,12.4988715 6.32878406,12.7612227 6.70002429,13.0668677 C7.07134841,13.3727045 7.48243479,13.6737947 7.93349314,13.9706179 C8.38463538,14.2669617 8.90947201,14.5087928 9.50829665,14.6958235 C10.1070374,14.8830461 10.6897977,14.9581748 11.2566616,14.9219289 L12.6338282,14.9219289 C12.9131287,14.8943609 13.1247327,14.7939655 13.2685563,14.6206948 L13.3162039,14.5520865 C13.3482486,14.4976218 13.3782381,14.4130001 13.4059206,14.2991323 C13.4339388,14.1850728 13.447864,14.0594108 13.447864,13.9227216 C13.439685,13.5303933 13.4658157,13.176804 13.525543,12.8620017 C13.5852283,12.5472952 13.6532603,12.3100189 13.7293455,12.1502205 C13.8053887,11.9905659 13.8912047,11.8558424 13.9867097,11.7466253 C14.0824243,11.6371684 14.1506241,11.5708614 14.190638,11.54804 C14.2304003,11.5250746 14.2621514,11.5094927 14.286101,11.5001436 C14.477698,11.4271724 14.7031853,11.4978423 14.9628982,11.7124889 C15.2224015,11.9269438 15.4657985,12.1917402 15.6934668,12.5064467 C15.9210093,12.8214408 16.1943958,13.1748383 16.5136682,13.5671666 C16.8331504,13.9596387 17.1124929,14.2513798 17.3519053,14.4433009 L17.5913177,14.6075581 C17.7512056,14.7171588 17.958783,14.8175541 18.2143017,14.9087922 C18.4693589,14.9999822 18.6928329,15.0228037 18.8847235,14.9772087 L21.9502342,14.9225522 C22.2534424,14.9225522 22.4893735,14.8651628 22.6567273,14.7512951 C22.8244167,14.6372356 22.924032,14.5115736 22.9561606,14.3748843 C22.9882053,14.2380513 22.989925,14.0828076 22.9622424,13.9092492 C22.9338468,13.7361223 22.9058706,13.6150629 22.8780202,13.5466464 Z" id="Shape"></path>
                        </g>
                    </g>
                </g>
            </g>
        </g>
    </g>
</svg>