<?xml version="1.0" encoding="UTF-8"?>
<svg width="191px" height="30px" viewBox="0 0 191 30" version="1.1" xmlns="http://www.w3.org/2000/svg" xmlns:xlink="http://www.w3.org/1999/xlink">
    <!-- Generator: Sketch 49.3 (51167) - http://www.bohemiancoding.com/sketch -->
    <title>Logo</title>
    <desc>Created with Sketch.</desc>
    <defs></defs>
    <g id="Page-1" stroke="none" stroke-width="1" fill="none" fill-rule="evenodd">
        <g id="Left" transform="translate(-45.000000, -85.000000)" fill="#798AA1">
            <g id="Logo" transform="translate(44.000000, 81.000000)">
                <g transform="translate(1.507853, 4.561644)">
                    <path d="M4.84423037,8.16027397 L3.14337173,9.94843836 L3.14337173,13.1780822 L0.230198953,13.1780822 L0.230198953,0.405479452 L3.14337173,0.405479452 L3.14337173,6.37210959 L8.75258639,0.405479452 L12.0095497,0.405479452 L6.7622199,6.09841096 L12.3171518,13.1780822 L8.89734031,13.1780822 L4.84423037,8.16027397 Z M19.7538848,13.3970411 C18.4390301,13.3970411 17.2538692,13.1111809 16.1983665,12.5394521 C15.1428638,11.9677232 14.3165684,11.1800872 13.7194555,10.1765205 C13.1223426,9.17295389 12.8237906,8.04471859 12.8237906,6.79178082 C12.8237906,5.53884305 13.1223426,4.41060776 13.7194555,3.4070411 C14.3165684,2.40347443 15.1428638,1.61583848 16.1983665,1.04410959 C17.2538692,0.472380703 18.4390301,0.186520548 19.7538848,0.186520548 C21.0687396,0.186520548 22.2508848,0.472380703 23.300356,1.04410959 C24.3498272,1.61583848 25.1761226,2.40347443 25.779267,3.4070411 C26.3824114,4.41060776 26.6839791,5.53884305 26.6839791,6.79178082 C26.6839791,8.04471859 26.3824114,9.17295389 25.779267,10.1765205 C25.1761226,11.1800872 24.3498272,11.9677232 23.300356,12.5394521 C22.2508848,13.1111809 21.0687396,13.3970411 19.7538848,13.3970411 Z M19.7538848,10.8790137 C20.5017838,10.8790137 21.1772954,10.705673 21.7804398,10.3589863 C22.3835842,10.0122996 22.8570454,9.52877023 23.2008377,8.90838356 C23.54463,8.2879969 23.7165236,7.58246971 23.7165236,6.79178082 C23.7165236,6.00109194 23.54463,5.29556475 23.2008377,4.67517808 C22.8570454,4.05479142 22.3835842,3.57126201 21.7804398,3.22457534 C21.1772954,2.87788868 20.5017838,2.70454795 19.7538848,2.70454795 C19.0059858,2.70454795 18.3304742,2.87788868 17.7273298,3.22457534 C17.1241855,3.57126201 16.6507242,4.05479142 16.3069319,4.67517808 C15.9631396,5.29556475 15.7912461,6.00109194 15.7912461,6.79178082 C15.7912461,7.58246971 15.9631396,8.2879969 16.3069319,8.90838356 C16.6507242,9.52877023 17.1241855,10.0122996 17.7273298,10.3589863 C18.3304742,10.705673 19.0059858,10.8790137 19.7538848,10.8790137 Z M38.1919162,6.53632877 C38.9156895,6.76745321 39.4826367,7.15366853 39.8927749,7.6949863 C40.302913,8.23630408 40.5079791,8.90229742 40.5079791,9.6929863 C40.5079791,10.8121152 40.0767373,11.6727367 39.2142408,12.2748767 C38.3517444,12.8770167 37.0942072,13.1780822 35.4415916,13.1780822 L28.8914764,13.1780822 L28.8914764,0.405479452 L35.0797068,0.405479452 C36.6237564,0.405479452 37.8089173,0.703503869 38.6352251,1.29956164 C39.4615329,1.89561942 39.8746806,2.70454284 39.8746806,3.72635616 C39.8746806,4.34674283 39.7269125,4.90021675 39.4313717,5.38679452 C39.135831,5.8733723 38.7226833,6.25654655 38.1919162,6.53632877 Z M31.8046492,2.63156164 L31.8046492,5.64224658 L34.717822,5.64224658 C35.4415952,5.64224658 35.9904484,5.51452183 36.3643979,5.25906849 C36.7383474,5.00361516 36.9253194,4.62652304 36.9253194,4.12778082 C36.9253194,3.6290386 36.7383474,3.25498755 36.3643979,3.00561644 C35.9904484,2.75624533 35.4415952,2.63156164 34.717822,2.63156164 L31.8046492,2.63156164 Z M35.2244607,10.952 C35.9964855,10.952 36.5785111,10.8242752 36.970555,10.5688219 C37.3625988,10.3133686 37.5586178,9.91803007 37.5586178,9.38279452 C37.5586178,8.32448786 36.7805732,7.79534247 35.2244607,7.79534247 L31.8046492,7.79534247 L31.8046492,10.952 L35.2244607,10.952 Z M52.5406492,10.8060274 L52.5406492,13.1780822 L42.7335707,13.1780822 L42.7335707,0.405479452 L52.3054241,0.405479452 L52.3054241,2.77753425 L45.6467435,2.77753425 L45.6467435,5.5510137 L51.5273717,5.5510137 L51.5273717,7.85008219 L45.6467435,7.85008219 L45.6467435,10.8060274 L52.5406492,10.8060274 Z M62.9448377,13.1780822 L60.5021152,9.62 L57.8060733,9.62 L57.8060733,13.1780822 L54.8748063,13.1780822 L54.8748063,0.405479452 L60.3573613,0.405479452 C61.4792098,0.405479452 62.4532734,0.594025512 63.2795812,0.971123288 C64.1058889,1.34822106 64.7421967,1.88344859 65.1885236,2.57682192 C65.6348504,3.27019525 65.8580105,4.09128293 65.8580105,5.04010959 C65.8580105,5.98893625 65.6318347,6.80698286 65.1794764,7.49427397 C64.7271182,8.18156508 64.084779,8.70766941 63.2524398,9.07260274 L66.0932356,13.1780822 L62.9448377,13.1780822 Z M62.890555,5.04010959 C62.890555,4.32240737 62.6613635,3.77197452 62.2029738,3.38879452 C61.7445841,3.00561452 61.0751039,2.8140274 60.1945131,2.8140274 L57.8060733,2.8140274 L57.8060733,7.26619178 L60.1945131,7.26619178 C61.0751039,7.26619178 61.7445841,7.07156359 62.2029738,6.68230137 C62.6613635,6.29303915 62.890555,5.74564736 62.890555,5.04010959 Z M79.7905759,0.405479452 L79.7905759,13.1780822 L77.3840419,13.1780822 L71.0691518,5.42328767 L71.0691518,13.1780822 L68.1740733,13.1780822 L68.1740733,0.405479452 L70.5987016,0.405479452 L76.8954974,8.16027397 L76.8954974,0.405479452 L79.7905759,0.405479452 Z M82.7942199,0.405479452 L85.7254869,0.405479452 L85.7254869,13.1780822 L82.7942199,13.1780822 L82.7942199,0.405479452 Z M93.3431623,8.16027397 L91.6423037,9.94843836 L91.6423037,13.1780822 L88.7291309,13.1780822 L88.7291309,0.405479452 L91.6423037,0.405479452 L91.6423037,6.37210959 L97.2515183,0.405479452 L100.508482,0.405479452 L95.2611518,6.09841096 L100.816084,13.1780822 L97.3962723,13.1780822 L93.3431623,8.16027397 Z M117.046618,10.8060274 L117.046618,13.1780822 L107.239539,13.1780822 L107.239539,0.405479452 L116.811393,0.405479452 L116.811393,2.77753425 L110.152712,2.77753425 L110.152712,5.5510137 L116.03334,5.5510137 L116.03334,7.85008219 L110.152712,7.85008219 L110.152712,10.8060274 L117.046618,10.8060274 Z M131.558199,0.405479452 L126.075644,13.1780822 L123.180565,13.1780822 L117.716105,0.405479452 L120.882597,0.405479452 L124.73667,9.52876712 L128.645026,0.405479452 L131.558199,0.405479452 Z M141.437654,6.59106849 L144.115602,6.59106849 L144.115602,11.7730959 C143.428018,12.296167 142.631879,12.6975876 141.727162,12.9773699 C140.822446,13.2571521 139.911711,13.3970411 138.994932,13.3970411 C137.680077,13.3970411 136.497932,13.114222 135.448461,12.5485753 C134.39899,11.9829287 133.57571,11.1983338 132.978597,10.1947671 C132.381484,9.19120046 132.082932,8.05688304 132.082932,6.79178082 C132.082932,5.52667861 132.381484,4.39236118 132.978597,3.38879452 C133.57571,2.38522786 134.405021,1.60063297 135.466555,1.0349863 C136.528089,0.469339638 137.722297,0.186520548 139.049215,0.186520548 C140.159,0.186520548 141.166236,0.375066608 142.070953,0.752164384 C142.975669,1.12926216 143.73562,1.67665395 144.350827,2.39435616 L142.469026,4.1460274 C141.56431,3.18503629 140.472635,2.70454795 139.193969,2.70454795 C138.385755,2.70454795 137.668024,2.87484761 137.040754,3.21545205 C136.413484,3.5560565 135.924944,4.03654484 135.57512,4.65693151 C135.225297,5.27731817 135.050387,5.98892749 135.050387,6.79178082 C135.050387,7.58246971 135.225297,8.2879969 135.57512,8.90838356 C135.924944,9.52877023 136.410468,10.0122996 137.031707,10.3589863 C137.652946,10.705673 138.36163,10.8790137 139.15778,10.8790137 C140.002182,10.8790137 140.762133,10.6965498 141.437654,10.3316164 L141.437654,6.59106849 Z M156.636817,10.8060274 L156.636817,13.1780822 L146.829738,13.1780822 L146.829738,0.405479452 L156.401592,0.405479452 L156.401592,2.77753425 L149.742911,2.77753425 L149.742911,5.5510137 L155.623539,5.5510137 L155.623539,7.85008219 L149.742911,7.85008219 L149.742911,10.8060274 L156.636817,10.8060274 Z M170.587476,0.405479452 L170.587476,13.1780822 L168.180942,13.1780822 L161.866052,5.42328767 L161.866052,13.1780822 L158.970974,13.1780822 L158.970974,0.405479452 L161.395602,0.405479452 L167.692398,8.16027397 L167.692398,0.405479452 L170.587476,0.405479452 Z M173.59112,0.405479452 L176.522387,0.405479452 L176.522387,13.1780822 L173.59112,13.1780822 L173.59112,0.405479452 Z M185.605696,8.65293151 L185.605696,13.1780822 L182.674429,13.1780822 L182.674429,8.61643836 L177.77089,0.405479452 L180.883099,0.405479452 L184.266723,6.08016438 L187.650346,0.405479452 L190.52733,0.405479452 L185.605696,8.65293151 Z" id="KOBERNIK-EVGENIY"></path>
                    <path d="M0.928586795,19.9404658 L0.928586795,24.0322603 L5.99045067,24.0322603 L5.99045067,24.6617671 L0.928586795,24.6617671 L0.928586795,28.890411 L0.236482083,28.890411 L0.236482083,19.3109589 L6.58756062,19.3109589 L6.58756062,19.9404658 L0.928586795,19.9404658 Z M16.7017386,28.890411 L14.4354349,25.688137 C14.1006898,25.7337537 13.7930908,25.7565616 13.5126286,25.7565616 L10.7984925,25.7565616 L10.7984925,28.890411 L10.1063878,28.890411 L10.1063878,19.3109589 L13.5126286,19.3109589 C14.7068545,19.3109589 15.6432221,19.5960588 16.3217595,20.1662671 C17.0002969,20.7364755 17.3395606,21.5279127 17.3395606,22.5406027 C17.3395606,23.2978394 17.1473112,23.9341824 16.7628066,24.4496507 C16.3783021,24.965119 15.828695,25.3277661 15.1139689,25.5376027 L17.4888381,28.890411 L16.7017386,28.890411 Z M13.5126286,25.1407397 C14.5259112,25.1407397 15.2994322,24.9149406 15.833215,24.4633356 C16.3669978,24.0117306 16.6338852,23.3708261 16.6338852,22.5406027 C16.6338852,21.7103794 16.3669978,21.0694749 15.833215,20.6178699 C15.2994322,20.1662649 14.5259112,19.9404658 13.5126286,19.9404658 L10.7984925,19.9404658 L10.7984925,25.1407397 L13.5126286,25.1407397 Z M25.2145762,28.9588356 C24.2827182,28.9588356 23.4413444,28.7467213 22.6904296,28.3224863 C21.9395149,27.8982513 21.3491962,27.3166475 20.9194558,26.5776575 C20.4897154,25.8386675 20.2748485,25.0130183 20.2748485,24.1006849 C20.2748485,23.1883516 20.4897154,22.3627023 20.9194558,21.6237123 C21.3491962,20.8847223 21.9395149,20.3031186 22.6904296,19.8788836 C23.4413444,19.4546486 24.2827182,19.2425342 25.2145762,19.2425342 C26.1464343,19.2425342 26.9878081,19.4523678 27.7387228,19.8720411 C28.4896376,20.2917144 29.0799563,20.8710374 29.5096966,21.6100274 C29.939437,22.3490174 30.154304,23.1792283 30.154304,24.1006849 C30.154304,25.0221416 29.939437,25.8523525 29.5096966,26.5913425 C29.0799563,27.3303325 28.4896376,27.9096554 27.7387228,28.3293288 C26.9878081,28.7490021 26.1464343,28.9588356 25.2145762,28.9588356 Z M25.2145762,28.3156438 C26.0107268,28.3156438 26.7299657,28.1331799 27.3723144,27.7682466 C28.0146632,27.4033132 28.5212969,26.8992566 28.8922307,26.2560616 C29.2631645,25.6128666 29.4486286,24.8944149 29.4486286,24.1006849 C29.4486286,23.3069549 29.2631645,22.5885032 28.8922307,21.9453082 C28.5212969,21.3021132 28.0146632,20.7980566 27.3723144,20.4331233 C26.7299657,20.06819 26.0107268,19.885726 25.2145762,19.885726 C24.4184257,19.885726 23.696925,20.06819 23.0500527,20.4331233 C22.4031803,20.7980566 21.8942849,21.3021132 21.5233511,21.9453082 C21.1524173,22.5885032 20.9669532,23.3069549 20.9669532,24.1006849 C20.9669532,24.8944149 21.1524173,25.6128666 21.5233511,26.2560616 C21.8942849,26.8992566 22.4031803,27.4033132 23.0500527,27.7682466 C23.696925,28.1331799 24.4184257,28.3156438 25.2145762,28.3156438 Z M41.5984086,19.3109589 L41.5984086,28.890411 L41.0284401,28.890411 L34.5552254,20.5699726 L34.5552254,28.890411 L33.8631207,28.890411 L33.8631207,19.3109589 L34.4466599,19.3109589 L40.9063039,27.6313973 L40.9063039,19.3109589 L41.5984086,19.3109589 Z M48.0349322,19.9404658 L44.6151206,19.9404658 L44.6151206,19.3109589 L52.1468484,19.3109589 L52.1468484,19.9404658 L48.7270369,19.9404658 L48.7270369,28.890411 L48.0349322,28.890411 L48.0349322,19.9404658 Z M61.7181991,28.2609041 L61.7181991,28.890411 L55.1635604,28.890411 L55.1635604,19.3109589 L61.5146389,19.3109589 L61.5146389,19.9404658 L55.8556651,19.9404658 L55.8556651,23.7175068 L60.917529,23.7175068 L60.917529,24.3333288 L55.8556651,24.3333288 L55.8556651,28.2609041 L61.7181991,28.2609041 Z M73.2844399,19.3109589 L73.2844399,28.890411 L72.7144713,28.890411 L66.2412567,20.5699726 L66.2412567,28.890411 L65.549152,28.890411 L65.549152,19.3109589 L66.1326912,19.3109589 L72.5923352,27.6313973 L72.5923352,19.3109589 L73.2844399,19.3109589 Z M77.9024922,19.3109589 L81.6615708,19.3109589 C82.6477118,19.3109589 83.523012,19.5162308 84.2874975,19.9267808 C85.051983,20.3373308 85.6468252,20.9052498 86.072042,21.6305548 C86.4972587,22.3558598 86.7098639,23.1792283 86.7098639,24.1006849 C86.7098639,25.0221416 86.4972587,25.8455101 86.072042,26.5708151 C85.6468252,27.2961201 85.051983,27.864039 84.2874975,28.274589 C83.523012,28.685139 82.6477118,28.890411 81.6615708,28.890411 L77.9024922,28.890411 L77.9024922,19.3109589 Z M81.607288,28.2609041 C82.4848631,28.2609041 83.2583842,28.0852826 83.9278744,27.7340342 C84.5973647,27.3827859 85.1130454,26.8924141 85.474932,26.2629041 C85.8368186,25.6333941 86.0177592,24.9126616 86.0177592,24.1006849 C86.0177592,23.2887083 85.8368186,22.5679758 85.474932,21.9384658 C85.1130454,21.3089558 84.5973647,20.8185839 83.9278744,20.4673356 C83.2583842,20.1160873 82.4848631,19.9404658 81.607288,19.9404658 L78.5945969,19.9404658 L78.5945969,28.2609041 L81.607288,28.2609041 Z M95.2131518,19.3109589 L98.9722303,19.3109589 C99.9583714,19.3109589 100.833672,19.5162308 101.598157,19.9267808 C102.362643,20.3373308 102.957485,20.9052498 103.382702,21.6305548 C103.807918,22.3558598 104.020524,23.1792283 104.020524,24.1006849 C104.020524,25.0221416 103.807918,25.8455101 103.382702,26.5708151 C102.957485,27.2961201 102.362643,27.864039 101.598157,28.274589 C100.833672,28.685139 99.9583714,28.890411 98.9722303,28.890411 L95.2131518,28.890411 L95.2131518,19.3109589 Z M98.9179476,28.2609041 C99.7955227,28.2609041 100.569044,28.0852826 101.238534,27.7340342 C101.908024,27.3827859 102.423705,26.8924141 102.785592,26.2629041 C103.147478,25.6333941 103.328419,24.9126616 103.328419,24.1006849 C103.328419,23.2887083 103.147478,22.5679758 102.785592,21.9384658 C102.423705,21.3089558 101.908024,20.8185839 101.238534,20.4673356 C100.569044,20.1160873 99.7955227,19.9404658 98.9179476,19.9404658 L95.9052565,19.9404658 L95.9052565,28.2609041 L98.9179476,28.2609041 Z M114.283979,28.2609041 L114.283979,28.890411 L107.72934,28.890411 L107.72934,19.3109589 L114.080419,19.3109589 L114.080419,19.9404658 L108.421445,19.9404658 L108.421445,23.7175068 L113.483309,23.7175068 L113.483309,24.3333288 L108.421445,24.3333288 L108.421445,28.2609041 L114.283979,28.2609041 Z M125.565235,19.3109589 L121.331183,28.890411 L120.639078,28.890411 L116.405026,19.3109589 L117.164984,19.3109589 L121.005487,27.9872055 L124.845989,19.3109589 L125.565235,19.3109589 Z M134.960167,28.2609041 L134.960167,28.890411 L128.405529,28.890411 L128.405529,19.3109589 L134.756607,19.3109589 L134.756607,19.9404658 L129.097633,19.9404658 L129.097633,23.7175068 L134.159497,23.7175068 L134.159497,24.3333288 L129.097633,24.3333288 L129.097633,28.2609041 L134.960167,28.2609041 Z M138.79112,19.3109589 L139.483225,19.3109589 L139.483225,28.2609041 L144.952209,28.2609041 L144.952209,28.890411 L138.79112,28.890411 L138.79112,19.3109589 Z M151.877277,28.9588356 C150.945419,28.9588356 150.104045,28.7467213 149.353131,28.3224863 C148.602216,27.8982513 148.011897,27.3166475 147.582157,26.5776575 C147.152416,25.8386675 146.937549,25.0130183 146.937549,24.1006849 C146.937549,23.1883516 147.152416,22.3627023 147.582157,21.6237123 C148.011897,20.8847223 148.602216,20.3031186 149.353131,19.8788836 C150.104045,19.4546486 150.945419,19.2425342 151.877277,19.2425342 C152.809135,19.2425342 153.650509,19.4523678 154.401424,19.8720411 C155.152339,20.2917144 155.742657,20.8710374 156.172398,21.6100274 C156.602138,22.3490174 156.817005,23.1792283 156.817005,24.1006849 C156.817005,25.0221416 156.602138,25.8523525 156.172398,26.5913425 C155.742657,27.3303325 155.152339,27.9096554 154.401424,28.3293288 C153.650509,28.7490021 152.809135,28.9588356 151.877277,28.9588356 Z M151.877277,28.3156438 C152.673428,28.3156438 153.392667,28.1331799 154.035015,27.7682466 C154.677364,27.4033132 155.183998,26.8992566 155.554932,26.2560616 C155.925865,25.6128666 156.11133,24.8944149 156.11133,24.1006849 C156.11133,23.3069549 155.925865,22.5885032 155.554932,21.9453082 C155.183998,21.3021132 154.677364,20.7980566 154.035015,20.4331233 C153.392667,20.06819 152.673428,19.885726 151.877277,19.885726 C151.081127,19.885726 150.359626,20.06819 149.712754,20.4331233 C149.065881,20.7980566 148.556986,21.3021132 148.186052,21.9453082 C147.815118,22.5885032 147.629654,23.3069549 147.629654,24.1006849 C147.629654,24.8944149 147.815118,25.6128666 148.186052,26.2560616 C148.556986,26.8992566 149.065881,27.4033132 149.712754,27.7682466 C150.359626,28.1331799 151.081127,28.3156438 151.877277,28.3156438 Z M163.932063,19.3109589 C165.126288,19.3109589 166.062656,19.5960588 166.741193,20.1662671 C167.419731,20.7364755 167.758994,21.5279127 167.758994,22.5406027 C167.758994,23.5441694 167.419731,24.3310451 166.741193,24.9012534 C166.062656,25.4714618 165.126288,25.7565616 163.932063,25.7565616 L161.217926,25.7565616 L161.217926,28.890411 L160.525822,28.890411 L160.525822,19.3109589 L163.932063,19.3109589 Z M163.932063,25.1270548 C164.945345,25.1270548 165.718866,24.9035365 166.252649,24.4564932 C166.786432,24.0094498 167.053319,23.3708261 167.053319,22.5406027 C167.053319,21.7103794 166.786432,21.0694749 166.252649,20.6178699 C165.718866,20.1662649 164.945345,19.9404658 163.932063,19.9404658 L161.217926,19.9404658 L161.217926,25.1270548 L163.932063,25.1270548 Z M177.954596,28.2609041 L177.954596,28.890411 L171.399958,28.890411 L171.399958,19.3109589 L177.751036,19.3109589 L177.751036,19.9404658 L172.092062,19.9404658 L172.092062,23.7175068 L177.153926,23.7175068 L177.153926,24.3333288 L172.092062,24.3333288 L172.092062,28.2609041 L177.954596,28.2609041 Z M188.3809,28.890411 L186.114596,25.688137 C185.779851,25.7337537 185.472252,25.7565616 185.19179,25.7565616 L182.477654,25.7565616 L182.477654,28.890411 L181.785549,28.890411 L181.785549,19.3109589 L185.19179,19.3109589 C186.386016,19.3109589 187.322384,19.5960588 188.000921,20.1662671 C188.679458,20.7364755 189.018722,21.5279127 189.018722,22.5406027 C189.018722,23.2978394 188.826473,23.9341824 188.441968,24.4496507 C188.057464,24.965119 187.507857,25.3277661 186.79313,25.5376027 L189.168,28.890411 L188.3809,28.890411 Z M185.19179,25.1407397 C186.205073,25.1407397 186.978594,24.9149406 187.512377,24.4633356 C188.046159,24.0117306 188.313047,23.3708261 188.313047,22.5406027 C188.313047,21.7103794 188.046159,21.0694749 187.512377,20.6178699 C186.978594,20.1662649 186.205073,19.9404658 185.19179,19.9404658 L182.477654,19.9404658 L182.477654,25.1407397 L185.19179,25.1407397 Z" id="FRONTEND-DEVELOPER"></path>
                </g>
            </g>
        </g>
    </g>
</svg>